# xmcd
#
# Track frame offsets:
#	150
#	18994
#	32829
#	49422
#	66374
#	82952
#	100886
#	118031
#	138183
#	154791
#	171071
#	187544
#	207220
#	222919
#	239593
#	258510
#	276859
#	293755
#
# Disc length: 4130
#
# Revision: 3
# Processed by: cddbd v1.5.2PL0 Copyright (c) Steve Scherf et al.
# Submitted via: kJams Pro 1.0b99
#
DISCID=01102012
DTITLE=Various Artist - SFG361
DYEAR=2016
DGENRE=Karaoke
TTITLE0=Lukas Graham - 7 Years
TTITLE1=Major Lazer ft Nyla and Fuse ODG - Light it up (remix)
TTITLE2=Zayn - Pillowtalk
TTITLE3=Jonas Blue ft Dakota - Fast Car
TTITLE4=Sigala ft Imani and DJ Fresh - Say you do
TTITLE5=Rihanna ft Drake - Work
TTITLE6=Dawin f. Silento - Dessert (remix)
TTITLE7=1975 - The sound
TTITLE8=Jess Glynne - Ain't got far to go
TTITLE9=Jason Derulo - Get ugly
TTITLE10=Twenty one pilots - Stressed out
TTITLE11=Rudimental ft Anne Marie - Rumour mill
TTITLE12=Jack Savoretti - Catapult
TTITLE13=Drake - Summer sixteen
TTITLE14=Taylor Swift - Out of the woods
TTITLE15=Gwen Stefani - Used to love you
TTITLE16=ELO - One step at a time
TTITLE17=Shakira - Try everything
EXTD=
EXTT0=
EXTT1=
EXTT2=
EXTT3=
EXTT4=
EXTT5=
EXTT6=
EXTT7=
EXTT8=
EXTT9=
EXTT10=
EXTT11=
EXTT12=
EXTT13=
EXTT14=
EXTT15=
EXTT16=
EXTT17=
PLAYORDER=
